<?xml version="1.0" encoding="UTF-8" standalone="no"?>
<!DOCTYPE svg PUBLIC "-//W3C//DTD SVG 1.1//EN"
 "http://www.w3.org/Graphics/SVG/1.1/DTD/svg11.dtd">
<!-- Generated by graphviz version 12.1.2 (20240928.0832)
 -->
<!-- Title: public.plants Pages: 1 -->
<svg width="867pt" height="941pt"
 viewBox="0.00 0.00 866.94 940.80" xmlns="http://www.w3.org/2000/svg" xmlns:xlink="http://www.w3.org/1999/xlink">
<g id="graph0" class="graph" transform="scale(1 1) rotate(0) translate(4 936.8)">
<title>public.plants</title>
<polygon fill="white" stroke="none" points="-4,4 -4,-936.8 862.94,-936.8 862.94,4 -4,4"/>
<!-- public.plants -->
<g id="node1" class="node">
<title>public.plants</title>
<polygon fill="#efefef" stroke="none" points="46.2,-851 46.2,-886.6 319.34,-886.6 319.34,-851 46.2,-851"/>
<polygon fill="none" stroke="black" points="46.2,-851 46.2,-886.6 319.34,-886.6 319.34,-851 46.2,-851"/>
<text text-anchor="start" x="74.28" y="-864.4" font-family="Arial Bold" font-size="18.00">public.plants</text>
<text text-anchor="start" x="166.77" y="-864.4" font-family="Arial" font-size="14.00">    </text>
<text text-anchor="start" x="197.89" y="-864.4" font-family="Arial" font-size="14.00" fill="#666666">[BASE TABLE]</text>
<polygon fill="none" stroke="black" points="46.2,-820.2 46.2,-851 319.34,-851 319.34,-820.2 46.2,-820.2"/>
<text text-anchor="start" x="53.2" y="-832.4" font-family="Arial" font-size="14.00">plant_id </text>
<text text-anchor="start" x="106.13" y="-832.4" font-family="Arial" font-size="14.00" fill="#666666">[varchar(256)]</text>
<polygon fill="none" stroke="black" points="46.2,-789.4 46.2,-820.2 319.34,-820.2 319.34,-789.4 46.2,-789.4"/>
<text text-anchor="start" x="53.2" y="-801.6" font-family="Arial" font-size="14.00">operator_id </text>
<text text-anchor="start" x="127.92" y="-801.6" font-family="Arial" font-size="14.00" fill="#666666">[varchar(256)]</text>
<polygon fill="none" stroke="black" points="46.2,-758.6 46.2,-789.4 319.34,-789.4 319.34,-758.6 46.2,-758.6"/>
<text text-anchor="start" x="53.2" y="-770.8" font-family="Arial" font-size="14.00">plant_name </text>
<text text-anchor="start" x="130.25" y="-770.8" font-family="Arial" font-size="14.00" fill="#666666">[varchar(256)]</text>
<polygon fill="none" stroke="black" points="46.2,-727.8 46.2,-758.6 319.34,-758.6 319.34,-727.8 46.2,-727.8"/>
<text text-anchor="start" x="53.2" y="-740" font-family="Arial" font-size="14.00">plant_address </text>
<text text-anchor="start" x="145.04" y="-740" font-family="Arial" font-size="14.00" fill="#666666">[varchar(256)]</text>
<polygon fill="none" stroke="black" points="46.2,-697 46.2,-727.8 319.34,-727.8 319.34,-697 46.2,-697"/>
<text text-anchor="start" x="53.2" y="-709.2" font-family="Arial" font-size="14.00">deleted_at </text>
<text text-anchor="start" x="122.48" y="-709.2" font-family="Arial" font-size="14.00" fill="#666666">[timestamp without time zone]</text>
<polygon fill="none" stroke="black" points="46.2,-666.2 46.2,-697 319.34,-697 319.34,-666.2 46.2,-666.2"/>
<text text-anchor="start" x="53.2" y="-678.4" font-family="Arial" font-size="14.00">created_at </text>
<text text-anchor="start" x="123.25" y="-678.4" font-family="Arial" font-size="14.00" fill="#666666">[timestamp without time zone]</text>
<polygon fill="none" stroke="black" points="46.2,-635.4 46.2,-666.2 319.34,-666.2 319.34,-635.4 46.2,-635.4"/>
<text text-anchor="start" x="53.2" y="-647.6" font-family="Arial" font-size="14.00">created_user_id </text>
<text text-anchor="start" x="157.49" y="-647.6" font-family="Arial" font-size="14.00" fill="#666666">[text]</text>
<polygon fill="none" stroke="black" points="46.2,-604.6 46.2,-635.4 319.34,-635.4 319.34,-604.6 46.2,-604.6"/>
<text text-anchor="start" x="53.2" y="-616.8" font-family="Arial" font-size="14.00">updated_at </text>
<text text-anchor="start" x="127.16" y="-616.8" font-family="Arial" font-size="14.00" fill="#666666">[timestamp without time zone]</text>
<polygon fill="none" stroke="black" points="46.2,-573.8 46.2,-604.6 319.34,-604.6 319.34,-573.8 46.2,-573.8"/>
<text text-anchor="start" x="53.2" y="-586" font-family="Arial" font-size="14.00">updated_user_id </text>
<text text-anchor="start" x="161.4" y="-586" font-family="Arial" font-size="14.00" fill="#666666">[text]</text>
<polygon fill="none" stroke="black" points="46.2,-543 46.2,-573.8 319.34,-573.8 319.34,-543 46.2,-543"/>
<text text-anchor="start" x="53.2" y="-555.2" font-family="Arial" font-size="14.00">open_plant_id </text>
<text text-anchor="start" x="145.06" y="-555.2" font-family="Arial" font-size="14.00" fill="#666666">[varchar(26)]</text>
<polygon fill="none" stroke="black" points="46.2,-512.2 46.2,-543 319.34,-543 319.34,-512.2 46.2,-512.2"/>
<text text-anchor="start" x="53.2" y="-524.4" font-family="Arial" font-size="14.00">global_plant_id </text>
<text text-anchor="start" x="151.28" y="-524.4" font-family="Arial" font-size="14.00" fill="#666666">[varchar(256)]</text>
<polygon fill="none" stroke="black" stroke-width="3" points="44.7,-510.7 44.7,-888.1 320.84,-888.1 320.84,-510.7 44.7,-510.7"/>
</g>
<!-- public.operators -->
<g id="node2" class="node">
<title>public.operators</title>
<polygon fill="#efefef" stroke="none" points="46.2,-351.2 46.2,-386.8 319.34,-386.8 319.34,-351.2 46.2,-351.2"/>
<polygon fill="none" stroke="black" points="46.2,-351.2 46.2,-386.8 319.34,-386.8 319.34,-351.2 46.2,-351.2"/>
<text text-anchor="start" x="62.3" y="-364.6" font-family="Arial Bold" font-size="18.00">public.operators</text>
<text text-anchor="start" x="178.76" y="-364.6" font-family="Arial" font-size="14.00">    </text>
<text text-anchor="start" x="209.88" y="-364.6" font-family="Arial" font-size="14.00" fill="#666666">[BASE TABLE]</text>
<polygon fill="none" stroke="black" points="46.2,-320.4 46.2,-351.2 319.34,-351.2 319.34,-320.4 46.2,-320.4"/>
<text text-anchor="start" x="53.2" y="-332.6" font-family="Arial" font-size="14.00">operator_id </text>
<text text-anchor="start" x="127.92" y="-332.6" font-family="Arial" font-size="14.00" fill="#666666">[varchar(256)]</text>
<polygon fill="none" stroke="black" points="46.2,-289.6 46.2,-320.4 319.34,-320.4 319.34,-289.6 46.2,-289.6"/>
<text text-anchor="start" x="53.2" y="-301.8" font-family="Arial" font-size="14.00">operator_name </text>
<text text-anchor="start" x="152.04" y="-301.8" font-family="Arial" font-size="14.00" fill="#666666">[varchar(256)]</text>
<polygon fill="none" stroke="black" points="46.2,-258.8 46.2,-289.6 319.34,-289.6 319.34,-258.8 46.2,-258.8"/>
<text text-anchor="start" x="53.2" y="-271" font-family="Arial" font-size="14.00">deleted_at </text>
<text text-anchor="start" x="122.48" y="-271" font-family="Arial" font-size="14.00" fill="#666666">[timestamp without time zone]</text>
<polygon fill="none" stroke="black" points="46.2,-228 46.2,-258.8 319.34,-258.8 319.34,-228 46.2,-228"/>
<text text-anchor="start" x="53.2" y="-240.2" font-family="Arial" font-size="14.00">created_at </text>
<text text-anchor="start" x="123.25" y="-240.2" font-family="Arial" font-size="14.00" fill="#666666">[timestamp without time zone]</text>
<polygon fill="none" stroke="black" points="46.2,-197.2 46.2,-228 319.34,-228 319.34,-197.2 46.2,-197.2"/>
<text text-anchor="start" x="53.2" y="-209.4" font-family="Arial" font-size="14.00">created_user_id </text>
<text text-anchor="start" x="157.49" y="-209.4" font-family="Arial" font-size="14.00" fill="#666666">[text]</text>
<polygon fill="none" stroke="black" points="46.2,-166.4 46.2,-197.2 319.34,-197.2 319.34,-166.4 46.2,-166.4"/>
<text text-anchor="start" x="53.2" y="-178.6" font-family="Arial" font-size="14.00">updated_at </text>
<text text-anchor="start" x="127.16" y="-178.6" font-family="Arial" font-size="14.00" fill="#666666">[timestamp without time zone]</text>
<polygon fill="none" stroke="black" points="46.2,-135.6 46.2,-166.4 319.34,-166.4 319.34,-135.6 46.2,-135.6"/>
<text text-anchor="start" x="53.2" y="-147.8" font-family="Arial" font-size="14.00">updated_user_id </text>
<text text-anchor="start" x="161.4" y="-147.8" font-family="Arial" font-size="14.00" fill="#666666">[text]</text>
<polygon fill="none" stroke="black" points="46.2,-104.8 46.2,-135.6 319.34,-135.6 319.34,-104.8 46.2,-104.8"/>
<text text-anchor="start" x="53.2" y="-117" font-family="Arial" font-size="14.00">operator_address </text>
<text text-anchor="start" x="166.83" y="-117" font-family="Arial" font-size="14.00" fill="#666666">[varchar(256)]</text>
<polygon fill="none" stroke="black" points="46.2,-74 46.2,-104.8 319.34,-104.8 319.34,-74 46.2,-74"/>
<text text-anchor="start" x="53.2" y="-86.2" font-family="Arial" font-size="14.00">open_operator_id </text>
<text text-anchor="start" x="166.85" y="-86.2" font-family="Arial" font-size="14.00" fill="#666666">[varchar(20)]</text>
<polygon fill="none" stroke="black" points="46.2,-43.2 46.2,-74 319.34,-74 319.34,-43.2 46.2,-43.2"/>
<text text-anchor="start" x="53.2" y="-55.4" font-family="Arial" font-size="14.00">global_operator_id </text>
<text text-anchor="start" x="173.07" y="-55.4" font-family="Arial" font-size="14.00" fill="#666666">[varchar(256)]</text>
</g>
<!-- public.plants&#45;&gt;public.operators -->
<g id="edge1" class="edge">
<title>public.plants:operator_id&#45;&gt;public.operators:operator_id</title>
<path fill="none" stroke="black" d="M329.24,-799.85C372.26,-749.73 369.3,-335.8 320.34,-335.8"/>
<polygon fill="black" stroke="black" points="329.37,-799.77 318.45,-800.71 324.71,-802.37 320.93,-804.47 320.93,-804.47 320.93,-804.47 324.71,-802.37 322.82,-808.57 329.37,-799.77"/>
<text text-anchor="start" x="327.34" y="-814.8" font-family="Arial" font-size="10.00">FOREIGN KEY (operator_id) REFERENCES operators(operator_id) ON UPDATE CASCADE ON DELETE CASCADE</text>
</g>
</g>
</svg>
