<?xml version="1.0" encoding="UTF-8" standalone="no"?>
<!DOCTYPE svg PUBLIC "-//W3C//DTD SVG 1.1//EN"
 "http://www.w3.org/Graphics/SVG/1.1/DTD/svg11.dtd">
<!-- Generated by graphviz version 12.1.2 (20240928.0832)
 -->
<!-- Title: public.api_keys Pages: 1 -->
<svg width="1118pt" height="787pt"
 viewBox="0.00 0.00 1117.60 786.80" xmlns="http://www.w3.org/2000/svg" xmlns:xlink="http://www.w3.org/1999/xlink">
<g id="graph0" class="graph" transform="scale(1 1) rotate(0) translate(4 782.8)">
<title>public.api_keys</title>
<polygon fill="white" stroke="none" points="-4,4 -4,-782.8 1113.6,-782.8 1113.6,4 -4,4"/>
<!-- public.api_keys -->
<g id="node1" class="node">
<title>public.api_keys</title>
<polygon fill="#efefef" stroke="none" points="427.43,-323.4 427.43,-359 700.57,-359 700.57,-323.4 427.43,-323.4"/>
<polygon fill="none" stroke="black" points="427.43,-323.4 427.43,-359 700.57,-359 700.57,-323.4 427.43,-323.4"/>
<text text-anchor="start" x="445.02" y="-336.8" font-family="Arial Bold" font-size="18.00">public.api_keys</text>
<text text-anchor="start" x="558.49" y="-336.8" font-family="Arial" font-size="14.00">    </text>
<text text-anchor="start" x="589.61" y="-336.8" font-family="Arial" font-size="14.00" fill="#666666">[BASE TABLE]</text>
<polygon fill="none" stroke="black" points="427.43,-292.6 427.43,-323.4 700.57,-323.4 700.57,-292.6 427.43,-292.6"/>
<text text-anchor="start" x="434.43" y="-304.8" font-family="Arial" font-size="14.00">id </text>
<text text-anchor="start" x="449.21" y="-304.8" font-family="Arial" font-size="14.00" fill="#666666">[varchar(256)]</text>
<polygon fill="none" stroke="black" points="427.43,-261.8 427.43,-292.6 700.57,-292.6 700.57,-261.8 427.43,-261.8"/>
<text text-anchor="start" x="434.43" y="-274" font-family="Arial" font-size="14.00">api_key </text>
<text text-anchor="start" x="486.57" y="-274" font-family="Arial" font-size="14.00" fill="#666666">[varchar(256)]</text>
<polygon fill="none" stroke="black" points="427.43,-231 427.43,-261.8 700.57,-261.8 700.57,-231 427.43,-231"/>
<text text-anchor="start" x="434.43" y="-243.2" font-family="Arial" font-size="14.00">application_name </text>
<text text-anchor="start" x="548.06" y="-243.2" font-family="Arial" font-size="14.00" fill="#666666">[varchar(256)]</text>
<polygon fill="none" stroke="black" points="427.43,-200.2 427.43,-231 700.57,-231 700.57,-200.2 427.43,-200.2"/>
<text text-anchor="start" x="434.43" y="-212.4" font-family="Arial" font-size="14.00">application_attribute </text>
<text text-anchor="start" x="563.63" y="-212.4" font-family="Arial" font-size="14.00" fill="#666666">[varchar(256)]</text>
<polygon fill="none" stroke="black" points="427.43,-169.4 427.43,-200.2 700.57,-200.2 700.57,-169.4 427.43,-169.4"/>
<text text-anchor="start" x="434.43" y="-181.6" font-family="Arial" font-size="14.00">deleted_at </text>
<text text-anchor="start" x="503.71" y="-181.6" font-family="Arial" font-size="14.00" fill="#666666">[timestamp without time zone]</text>
<polygon fill="none" stroke="black" points="427.43,-138.6 427.43,-169.4 700.57,-169.4 700.57,-138.6 427.43,-138.6"/>
<text text-anchor="start" x="434.43" y="-150.8" font-family="Arial" font-size="14.00">created_at </text>
<text text-anchor="start" x="504.47" y="-150.8" font-family="Arial" font-size="14.00" fill="#666666">[timestamp without time zone]</text>
<polygon fill="none" stroke="black" points="427.43,-107.8 427.43,-138.6 700.57,-138.6 700.57,-107.8 427.43,-107.8"/>
<text text-anchor="start" x="434.43" y="-120" font-family="Arial" font-size="14.00">created_user_id </text>
<text text-anchor="start" x="538.72" y="-120" font-family="Arial" font-size="14.00" fill="#666666">[text]</text>
<polygon fill="none" stroke="black" points="427.43,-77 427.43,-107.8 700.57,-107.8 700.57,-77 427.43,-77"/>
<text text-anchor="start" x="434.43" y="-89.2" font-family="Arial" font-size="14.00">updated_at </text>
<text text-anchor="start" x="508.38" y="-89.2" font-family="Arial" font-size="14.00" fill="#666666">[timestamp without time zone]</text>
<polygon fill="none" stroke="black" points="427.43,-46.2 427.43,-77 700.57,-77 700.57,-46.2 427.43,-46.2"/>
<text text-anchor="start" x="434.43" y="-58.4" font-family="Arial" font-size="14.00">updated_user_id </text>
<text text-anchor="start" x="542.63" y="-58.4" font-family="Arial" font-size="14.00" fill="#666666">[text]</text>
<polygon fill="none" stroke="black" stroke-width="3" points="425.93,-44.7 425.93,-360.5 702.07,-360.5 702.07,-44.7 425.93,-44.7"/>
</g>
<!-- public.cidrs -->
<g id="node2" class="node">
<title>public.cidrs</title>
<polygon fill="#efefef" stroke="none" points="229.43,-700 229.43,-735.6 502.57,-735.6 502.57,-700 229.43,-700"/>
<polygon fill="none" stroke="black" points="229.43,-700 229.43,-735.6 502.57,-735.6 502.57,-700 229.43,-700"/>
<text text-anchor="start" x="261.51" y="-713.4" font-family="Arial Bold" font-size="18.00">public.cidrs</text>
<text text-anchor="start" x="345.99" y="-713.4" font-family="Arial" font-size="14.00">    </text>
<text text-anchor="start" x="377.11" y="-713.4" font-family="Arial" font-size="14.00" fill="#666666">[BASE TABLE]</text>
<polygon fill="none" stroke="black" points="229.43,-669.2 229.43,-700 502.57,-700 502.57,-669.2 229.43,-669.2"/>
<text text-anchor="start" x="236.43" y="-681.4" font-family="Arial" font-size="14.00">cidr </text>
<text text-anchor="start" x="262.88" y="-681.4" font-family="Arial" font-size="14.00" fill="#666666">[varchar(18)]</text>
<polygon fill="none" stroke="black" points="229.43,-638.4 229.43,-669.2 502.57,-669.2 502.57,-638.4 229.43,-638.4"/>
<text text-anchor="start" x="236.43" y="-650.6" font-family="Arial" font-size="14.00">api_key </text>
<text text-anchor="start" x="288.57" y="-650.6" font-family="Arial" font-size="14.00" fill="#666666">[varchar(256)]</text>
<polygon fill="none" stroke="black" points="229.43,-607.6 229.43,-638.4 502.57,-638.4 502.57,-607.6 229.43,-607.6"/>
<text text-anchor="start" x="236.43" y="-619.8" font-family="Arial" font-size="14.00">deleted_at </text>
<text text-anchor="start" x="305.71" y="-619.8" font-family="Arial" font-size="14.00" fill="#666666">[timestamp without time zone]</text>
<polygon fill="none" stroke="black" points="229.43,-576.8 229.43,-607.6 502.57,-607.6 502.57,-576.8 229.43,-576.8"/>
<text text-anchor="start" x="236.43" y="-589" font-family="Arial" font-size="14.00">created_at </text>
<text text-anchor="start" x="306.47" y="-589" font-family="Arial" font-size="14.00" fill="#666666">[timestamp without time zone]</text>
<polygon fill="none" stroke="black" points="229.43,-546 229.43,-576.8 502.57,-576.8 502.57,-546 229.43,-546"/>
<text text-anchor="start" x="236.43" y="-558.2" font-family="Arial" font-size="14.00">created_user_id </text>
<text text-anchor="start" x="340.72" y="-558.2" font-family="Arial" font-size="14.00" fill="#666666">[text]</text>
<polygon fill="none" stroke="black" points="229.43,-515.2 229.43,-546 502.57,-546 502.57,-515.2 229.43,-515.2"/>
<text text-anchor="start" x="236.43" y="-527.4" font-family="Arial" font-size="14.00">updated_at </text>
<text text-anchor="start" x="310.38" y="-527.4" font-family="Arial" font-size="14.00" fill="#666666">[timestamp without time zone]</text>
<polygon fill="none" stroke="black" points="229.43,-484.4 229.43,-515.2 502.57,-515.2 502.57,-484.4 229.43,-484.4"/>
<text text-anchor="start" x="236.43" y="-496.6" font-family="Arial" font-size="14.00">updated_user_id </text>
<text text-anchor="start" x="344.63" y="-496.6" font-family="Arial" font-size="14.00" fill="#666666">[text]</text>
</g>
<!-- public.cidrs&#45;&gt;public.api_keys -->
<g id="edge1" class="edge">
<title>public.cidrs:api_key&#45;&gt;public.api_keys:api_key</title>
<path fill="none" stroke="black" d="M513.39,-650.78C547.21,-627.63 525.87,-478 502.57,-441.2 482.76,-409.91 447.28,-436.46 427.43,-405.2 396.92,-357.18 369.54,-277.2 426.43,-277.2"/>
<polygon fill="black" stroke="black" points="513.45,-650.77 502.57,-649.4 508.35,-652.33 504.21,-653.6 504.21,-653.6 504.21,-653.6 508.35,-652.33 505.21,-658 513.45,-650.77"/>
<text text-anchor="start" x="7" y="-663.8" font-family="Arial" font-size="10.00">FOREIGN KEY (api_key) REFERENCES api_keys(api_key) ON UPDATE CASCADE ON DELETE CASCADE</text>
</g>
<!-- public.apikey_operators -->
<g id="node3" class="node">
<title>public.apikey_operators</title>
<polygon fill="#efefef" stroke="none" points="607.03,-700 607.03,-735.6 918.96,-735.6 918.96,-700 607.03,-700"/>
<polygon fill="none" stroke="black" points="607.03,-700 607.03,-735.6 918.96,-735.6 918.96,-700 607.03,-700"/>
<text text-anchor="start" x="614.03" y="-713.4" font-family="Arial Bold" font-size="18.00">public.apikey_operators</text>
<text text-anchor="start" x="787.48" y="-713.4" font-family="Arial" font-size="14.00">    </text>
<text text-anchor="start" x="818.59" y="-713.4" font-family="Arial" font-size="14.00" fill="#666666">[BASE TABLE]</text>
<polygon fill="none" stroke="black" points="607.03,-669.2 607.03,-700 918.96,-700 918.96,-669.2 607.03,-669.2"/>
<text text-anchor="start" x="614.03" y="-681.4" font-family="Arial" font-size="14.00">api_key </text>
<text text-anchor="start" x="666.18" y="-681.4" font-family="Arial" font-size="14.00" fill="#666666">[varchar(256)]</text>
<polygon fill="none" stroke="black" points="607.03,-638.4 607.03,-669.2 918.96,-669.2 918.96,-638.4 607.03,-638.4"/>
<text text-anchor="start" x="614.03" y="-650.6" font-family="Arial" font-size="14.00">operator_id </text>
<text text-anchor="start" x="688.75" y="-650.6" font-family="Arial" font-size="14.00" fill="#666666">[varchar(256)]</text>
<polygon fill="none" stroke="black" points="607.03,-607.6 607.03,-638.4 918.96,-638.4 918.96,-607.6 607.03,-607.6"/>
<text text-anchor="start" x="614.03" y="-619.8" font-family="Arial" font-size="14.00">deleted_at </text>
<text text-anchor="start" x="683.31" y="-619.8" font-family="Arial" font-size="14.00" fill="#666666">[timestamp without time zone]</text>
<polygon fill="none" stroke="black" points="607.03,-576.8 607.03,-607.6 918.96,-607.6 918.96,-576.8 607.03,-576.8"/>
<text text-anchor="start" x="614.03" y="-589" font-family="Arial" font-size="14.00">created_at </text>
<text text-anchor="start" x="684.08" y="-589" font-family="Arial" font-size="14.00" fill="#666666">[timestamp without time zone]</text>
<polygon fill="none" stroke="black" points="607.03,-546 607.03,-576.8 918.96,-576.8 918.96,-546 607.03,-546"/>
<text text-anchor="start" x="614.03" y="-558.2" font-family="Arial" font-size="14.00">created_user_id </text>
<text text-anchor="start" x="718.32" y="-558.2" font-family="Arial" font-size="14.00" fill="#666666">[text]</text>
<polygon fill="none" stroke="black" points="607.03,-515.2 607.03,-546 918.96,-546 918.96,-515.2 607.03,-515.2"/>
<text text-anchor="start" x="614.03" y="-527.4" font-family="Arial" font-size="14.00">updated_at </text>
<text text-anchor="start" x="687.99" y="-527.4" font-family="Arial" font-size="14.00" fill="#666666">[timestamp without time zone]</text>
<polygon fill="none" stroke="black" points="607.03,-484.4 607.03,-515.2 918.96,-515.2 918.96,-484.4 607.03,-484.4"/>
<text text-anchor="start" x="614.03" y="-496.6" font-family="Arial" font-size="14.00">updated_user_id </text>
<text text-anchor="start" x="722.23" y="-496.6" font-family="Arial" font-size="14.00" fill="#666666">[text]</text>
</g>
<!-- public.apikey_operators&#45;&gt;public.api_keys -->
<g id="edge2" class="edge">
<title>public.apikey_operators:api_key&#45;&gt;public.api_keys:api_key</title>
<path fill="none" stroke="black" d="M596.02,-681.92C555.31,-658.13 578.42,-482.68 607.03,-441.2 632.32,-404.53 675.21,-441.82 700.57,-405.2 732.96,-358.43 758.46,-277.2 701.57,-277.2"/>
<polygon fill="black" stroke="black" points="596.05,-681.93 604.55,-688.86 601.2,-683.31 605.39,-684.43 605.39,-684.43 605.39,-684.43 601.2,-683.31 606.87,-680.17 596.05,-681.93"/>
<text text-anchor="start" x="613.03" y="-694.6" font-family="Arial" font-size="10.00">FOREIGN KEY (api_key) REFERENCES api_keys(api_key) ON UPDATE CASCADE ON DELETE CASCADE</text>
</g>
</g>
</svg>
