<?xml version="1.0" encoding="UTF-8" standalone="no"?>
<!DOCTYPE svg PUBLIC "-//W3C//DTD SVG 1.1//EN"
 "http://www.w3.org/Graphics/SVG/1.1/DTD/svg11.dtd">
<!-- Generated by graphviz version 12.1.2 (20240928.0832)
 -->
<!-- Title: public.cidrs Pages: 1 -->
<svg width="832pt" height="787pt"
 viewBox="0.00 0.00 831.91 786.80" xmlns="http://www.w3.org/2000/svg" xmlns:xlink="http://www.w3.org/1999/xlink">
<g id="graph0" class="graph" transform="scale(1 1) rotate(0) translate(4 782.8)">
<title>public.cidrs</title>
<polygon fill="white" stroke="none" points="-4,4 -4,-782.8 827.91,-782.8 827.91,4 -4,4"/>
<!-- public.cidrs -->
<g id="node1" class="node">
<title>public.cidrs</title>
<polygon fill="#efefef" stroke="none" points="46.2,-697 46.2,-732.6 319.34,-732.6 319.34,-697 46.2,-697"/>
<polygon fill="none" stroke="black" points="46.2,-697 46.2,-732.6 319.34,-732.6 319.34,-697 46.2,-697"/>
<text text-anchor="start" x="78.29" y="-710.4" font-family="Arial Bold" font-size="18.00">public.cidrs</text>
<text text-anchor="start" x="162.77" y="-710.4" font-family="Arial" font-size="14.00">    </text>
<text text-anchor="start" x="193.88" y="-710.4" font-family="Arial" font-size="14.00" fill="#666666">[BASE TABLE]</text>
<polygon fill="none" stroke="black" points="46.2,-666.2 46.2,-697 319.34,-697 319.34,-666.2 46.2,-666.2"/>
<text text-anchor="start" x="53.2" y="-678.4" font-family="Arial" font-size="14.00">cidr </text>
<text text-anchor="start" x="79.65" y="-678.4" font-family="Arial" font-size="14.00" fill="#666666">[varchar(18)]</text>
<polygon fill="none" stroke="black" points="46.2,-635.4 46.2,-666.2 319.34,-666.2 319.34,-635.4 46.2,-635.4"/>
<text text-anchor="start" x="53.2" y="-647.6" font-family="Arial" font-size="14.00">api_key </text>
<text text-anchor="start" x="105.34" y="-647.6" font-family="Arial" font-size="14.00" fill="#666666">[varchar(256)]</text>
<polygon fill="none" stroke="black" points="46.2,-604.6 46.2,-635.4 319.34,-635.4 319.34,-604.6 46.2,-604.6"/>
<text text-anchor="start" x="53.2" y="-616.8" font-family="Arial" font-size="14.00">deleted_at </text>
<text text-anchor="start" x="122.48" y="-616.8" font-family="Arial" font-size="14.00" fill="#666666">[timestamp without time zone]</text>
<polygon fill="none" stroke="black" points="46.2,-573.8 46.2,-604.6 319.34,-604.6 319.34,-573.8 46.2,-573.8"/>
<text text-anchor="start" x="53.2" y="-586" font-family="Arial" font-size="14.00">created_at </text>
<text text-anchor="start" x="123.25" y="-586" font-family="Arial" font-size="14.00" fill="#666666">[timestamp without time zone]</text>
<polygon fill="none" stroke="black" points="46.2,-543 46.2,-573.8 319.34,-573.8 319.34,-543 46.2,-543"/>
<text text-anchor="start" x="53.2" y="-555.2" font-family="Arial" font-size="14.00">created_user_id </text>
<text text-anchor="start" x="157.49" y="-555.2" font-family="Arial" font-size="14.00" fill="#666666">[text]</text>
<polygon fill="none" stroke="black" points="46.2,-512.2 46.2,-543 319.34,-543 319.34,-512.2 46.2,-512.2"/>
<text text-anchor="start" x="53.2" y="-524.4" font-family="Arial" font-size="14.00">updated_at </text>
<text text-anchor="start" x="127.16" y="-524.4" font-family="Arial" font-size="14.00" fill="#666666">[timestamp without time zone]</text>
<polygon fill="none" stroke="black" points="46.2,-481.4 46.2,-512.2 319.34,-512.2 319.34,-481.4 46.2,-481.4"/>
<text text-anchor="start" x="53.2" y="-493.6" font-family="Arial" font-size="14.00">updated_user_id </text>
<text text-anchor="start" x="161.4" y="-493.6" font-family="Arial" font-size="14.00" fill="#666666">[text]</text>
<polygon fill="none" stroke="black" stroke-width="3" points="44.7,-479.9 44.7,-734.1 320.84,-734.1 320.84,-479.9 44.7,-479.9"/>
</g>
<!-- public.api_keys -->
<g id="node2" class="node">
<title>public.api_keys</title>
<polygon fill="#efefef" stroke="none" points="46.2,-320.4 46.2,-356 319.34,-356 319.34,-320.4 46.2,-320.4"/>
<polygon fill="none" stroke="black" points="46.2,-320.4 46.2,-356 319.34,-356 319.34,-320.4 46.2,-320.4"/>
<text text-anchor="start" x="63.79" y="-333.8" font-family="Arial Bold" font-size="18.00">public.api_keys</text>
<text text-anchor="start" x="177.26" y="-333.8" font-family="Arial" font-size="14.00">    </text>
<text text-anchor="start" x="208.38" y="-333.8" font-family="Arial" font-size="14.00" fill="#666666">[BASE TABLE]</text>
<polygon fill="none" stroke="black" points="46.2,-289.6 46.2,-320.4 319.34,-320.4 319.34,-289.6 46.2,-289.6"/>
<text text-anchor="start" x="53.2" y="-301.8" font-family="Arial" font-size="14.00">id </text>
<text text-anchor="start" x="67.99" y="-301.8" font-family="Arial" font-size="14.00" fill="#666666">[varchar(256)]</text>
<polygon fill="none" stroke="black" points="46.2,-258.8 46.2,-289.6 319.34,-289.6 319.34,-258.8 46.2,-258.8"/>
<text text-anchor="start" x="53.2" y="-271" font-family="Arial" font-size="14.00">api_key </text>
<text text-anchor="start" x="105.34" y="-271" font-family="Arial" font-size="14.00" fill="#666666">[varchar(256)]</text>
<polygon fill="none" stroke="black" points="46.2,-228 46.2,-258.8 319.34,-258.8 319.34,-228 46.2,-228"/>
<text text-anchor="start" x="53.2" y="-240.2" font-family="Arial" font-size="14.00">application_name </text>
<text text-anchor="start" x="166.83" y="-240.2" font-family="Arial" font-size="14.00" fill="#666666">[varchar(256)]</text>
<polygon fill="none" stroke="black" points="46.2,-197.2 46.2,-228 319.34,-228 319.34,-197.2 46.2,-197.2"/>
<text text-anchor="start" x="53.2" y="-209.4" font-family="Arial" font-size="14.00">application_attribute </text>
<text text-anchor="start" x="182.4" y="-209.4" font-family="Arial" font-size="14.00" fill="#666666">[varchar(256)]</text>
<polygon fill="none" stroke="black" points="46.2,-166.4 46.2,-197.2 319.34,-197.2 319.34,-166.4 46.2,-166.4"/>
<text text-anchor="start" x="53.2" y="-178.6" font-family="Arial" font-size="14.00">deleted_at </text>
<text text-anchor="start" x="122.48" y="-178.6" font-family="Arial" font-size="14.00" fill="#666666">[timestamp without time zone]</text>
<polygon fill="none" stroke="black" points="46.2,-135.6 46.2,-166.4 319.34,-166.4 319.34,-135.6 46.2,-135.6"/>
<text text-anchor="start" x="53.2" y="-147.8" font-family="Arial" font-size="14.00">created_at </text>
<text text-anchor="start" x="123.25" y="-147.8" font-family="Arial" font-size="14.00" fill="#666666">[timestamp without time zone]</text>
<polygon fill="none" stroke="black" points="46.2,-104.8 46.2,-135.6 319.34,-135.6 319.34,-104.8 46.2,-104.8"/>
<text text-anchor="start" x="53.2" y="-117" font-family="Arial" font-size="14.00">created_user_id </text>
<text text-anchor="start" x="157.49" y="-117" font-family="Arial" font-size="14.00" fill="#666666">[text]</text>
<polygon fill="none" stroke="black" points="46.2,-74 46.2,-104.8 319.34,-104.8 319.34,-74 46.2,-74"/>
<text text-anchor="start" x="53.2" y="-86.2" font-family="Arial" font-size="14.00">updated_at </text>
<text text-anchor="start" x="127.16" y="-86.2" font-family="Arial" font-size="14.00" fill="#666666">[timestamp without time zone]</text>
<polygon fill="none" stroke="black" points="46.2,-43.2 46.2,-74 319.34,-74 319.34,-43.2 46.2,-43.2"/>
<text text-anchor="start" x="53.2" y="-55.4" font-family="Arial" font-size="14.00">updated_user_id </text>
<text text-anchor="start" x="161.4" y="-55.4" font-family="Arial" font-size="14.00" fill="#666666">[text]</text>
</g>
<!-- public.cidrs&#45;&gt;public.api_keys -->
<g id="edge1" class="edge">
<title>public.cidrs:api_key&#45;&gt;public.api_keys:api_key</title>
<path fill="none" stroke="black" d="M330.22,-648.95C403.89,-620.54 400.6,-274.2 320.34,-274.2"/>
<polygon fill="black" stroke="black" points="330.5,-648.9 319.84,-646.32 325.26,-649.88 321,-650.68 321,-650.68 321,-650.68 325.26,-649.88 321.5,-655.16 330.5,-648.9"/>
<text text-anchor="start" x="327.34" y="-660.8" font-family="Arial" font-size="10.00">FOREIGN KEY (api_key) REFERENCES api_keys(api_key) ON UPDATE CASCADE ON DELETE CASCADE</text>
</g>
</g>
</svg>
