<?xml version="1.0" encoding="UTF-8" standalone="no"?>
<!DOCTYPE svg PUBLIC "-//W3C//DTD SVG 1.1//EN"
 "http://www.w3.org/Graphics/SVG/1.1/DTD/svg11.dtd">
<!-- Generated by graphviz version 12.1.2 (20240928.0832)
 -->
<!-- Title: public.operators Pages: 1 -->
<svg width="1188pt" height="941pt"
 viewBox="0.00 0.00 1187.65 940.80" xmlns="http://www.w3.org/2000/svg" xmlns:xlink="http://www.w3.org/1999/xlink">
<g id="graph0" class="graph" transform="scale(1 1) rotate(0) translate(4 936.8)">
<title>public.operators</title>
<polygon fill="white" stroke="none" points="-4,4 -4,-936.8 1183.65,-936.8 1183.65,4 -4,4"/>
<!-- public.operators -->
<g id="node1" class="node">
<title>public.operators</title>
<polygon fill="#efefef" stroke="none" points="443.06,-354.2 443.06,-389.8 716.2,-389.8 716.2,-354.2 443.06,-354.2"/>
<polygon fill="none" stroke="black" points="443.06,-354.2 443.06,-389.8 716.2,-389.8 716.2,-354.2 443.06,-354.2"/>
<text text-anchor="start" x="459.15" y="-367.6" font-family="Arial Bold" font-size="18.00">public.operators</text>
<text text-anchor="start" x="575.62" y="-367.6" font-family="Arial" font-size="14.00">    </text>
<text text-anchor="start" x="606.73" y="-367.6" font-family="Arial" font-size="14.00" fill="#666666">[BASE TABLE]</text>
<polygon fill="none" stroke="black" points="443.06,-323.4 443.06,-354.2 716.2,-354.2 716.2,-323.4 443.06,-323.4"/>
<text text-anchor="start" x="450.06" y="-335.6" font-family="Arial" font-size="14.00">operator_id </text>
<text text-anchor="start" x="524.77" y="-335.6" font-family="Arial" font-size="14.00" fill="#666666">[varchar(256)]</text>
<polygon fill="none" stroke="black" points="443.06,-292.6 443.06,-323.4 716.2,-323.4 716.2,-292.6 443.06,-292.6"/>
<text text-anchor="start" x="450.06" y="-304.8" font-family="Arial" font-size="14.00">operator_name </text>
<text text-anchor="start" x="548.9" y="-304.8" font-family="Arial" font-size="14.00" fill="#666666">[varchar(256)]</text>
<polygon fill="none" stroke="black" points="443.06,-261.8 443.06,-292.6 716.2,-292.6 716.2,-261.8 443.06,-261.8"/>
<text text-anchor="start" x="450.06" y="-274" font-family="Arial" font-size="14.00">deleted_at </text>
<text text-anchor="start" x="519.34" y="-274" font-family="Arial" font-size="14.00" fill="#666666">[timestamp without time zone]</text>
<polygon fill="none" stroke="black" points="443.06,-231 443.06,-261.8 716.2,-261.8 716.2,-231 443.06,-231"/>
<text text-anchor="start" x="450.06" y="-243.2" font-family="Arial" font-size="14.00">created_at </text>
<text text-anchor="start" x="520.1" y="-243.2" font-family="Arial" font-size="14.00" fill="#666666">[timestamp without time zone]</text>
<polygon fill="none" stroke="black" points="443.06,-200.2 443.06,-231 716.2,-231 716.2,-200.2 443.06,-200.2"/>
<text text-anchor="start" x="450.06" y="-212.4" font-family="Arial" font-size="14.00">created_user_id </text>
<text text-anchor="start" x="554.35" y="-212.4" font-family="Arial" font-size="14.00" fill="#666666">[text]</text>
<polygon fill="none" stroke="black" points="443.06,-169.4 443.06,-200.2 716.2,-200.2 716.2,-169.4 443.06,-169.4"/>
<text text-anchor="start" x="450.06" y="-181.6" font-family="Arial" font-size="14.00">updated_at </text>
<text text-anchor="start" x="524.01" y="-181.6" font-family="Arial" font-size="14.00" fill="#666666">[timestamp without time zone]</text>
<polygon fill="none" stroke="black" points="443.06,-138.6 443.06,-169.4 716.2,-169.4 716.2,-138.6 443.06,-138.6"/>
<text text-anchor="start" x="450.06" y="-150.8" font-family="Arial" font-size="14.00">updated_user_id </text>
<text text-anchor="start" x="558.26" y="-150.8" font-family="Arial" font-size="14.00" fill="#666666">[text]</text>
<polygon fill="none" stroke="black" points="443.06,-107.8 443.06,-138.6 716.2,-138.6 716.2,-107.8 443.06,-107.8"/>
<text text-anchor="start" x="450.06" y="-120" font-family="Arial" font-size="14.00">operator_address </text>
<text text-anchor="start" x="563.68" y="-120" font-family="Arial" font-size="14.00" fill="#666666">[varchar(256)]</text>
<polygon fill="none" stroke="black" points="443.06,-77 443.06,-107.8 716.2,-107.8 716.2,-77 443.06,-77"/>
<text text-anchor="start" x="450.06" y="-89.2" font-family="Arial" font-size="14.00">open_operator_id </text>
<text text-anchor="start" x="563.7" y="-89.2" font-family="Arial" font-size="14.00" fill="#666666">[varchar(20)]</text>
<polygon fill="none" stroke="black" points="443.06,-46.2 443.06,-77 716.2,-77 716.2,-46.2 443.06,-46.2"/>
<text text-anchor="start" x="450.06" y="-58.4" font-family="Arial" font-size="14.00">global_operator_id </text>
<text text-anchor="start" x="569.92" y="-58.4" font-family="Arial" font-size="14.00" fill="#666666">[varchar(256)]</text>
<polygon fill="none" stroke="black" stroke-width="3" points="441.56,-44.7 441.56,-391.3 717.7,-391.3 717.7,-44.7 441.56,-44.7"/>
</g>
<!-- public.apikey_operators -->
<g id="node2" class="node">
<title>public.apikey_operators</title>
<polygon fill="#efefef" stroke="none" points="225.66,-792.4 225.66,-828 537.59,-828 537.59,-792.4 225.66,-792.4"/>
<polygon fill="none" stroke="black" points="225.66,-792.4 225.66,-828 537.59,-828 537.59,-792.4 225.66,-792.4"/>
<text text-anchor="start" x="232.66" y="-805.8" font-family="Arial Bold" font-size="18.00">public.apikey_operators</text>
<text text-anchor="start" x="406.11" y="-805.8" font-family="Arial" font-size="14.00">    </text>
<text text-anchor="start" x="437.22" y="-805.8" font-family="Arial" font-size="14.00" fill="#666666">[BASE TABLE]</text>
<polygon fill="none" stroke="black" points="225.66,-761.6 225.66,-792.4 537.59,-792.4 537.59,-761.6 225.66,-761.6"/>
<text text-anchor="start" x="232.66" y="-773.8" font-family="Arial" font-size="14.00">api_key </text>
<text text-anchor="start" x="284.81" y="-773.8" font-family="Arial" font-size="14.00" fill="#666666">[varchar(256)]</text>
<polygon fill="none" stroke="black" points="225.66,-730.8 225.66,-761.6 537.59,-761.6 537.59,-730.8 225.66,-730.8"/>
<text text-anchor="start" x="232.66" y="-743" font-family="Arial" font-size="14.00">operator_id </text>
<text text-anchor="start" x="307.38" y="-743" font-family="Arial" font-size="14.00" fill="#666666">[varchar(256)]</text>
<polygon fill="none" stroke="black" points="225.66,-700 225.66,-730.8 537.59,-730.8 537.59,-700 225.66,-700"/>
<text text-anchor="start" x="232.66" y="-712.2" font-family="Arial" font-size="14.00">deleted_at </text>
<text text-anchor="start" x="301.94" y="-712.2" font-family="Arial" font-size="14.00" fill="#666666">[timestamp without time zone]</text>
<polygon fill="none" stroke="black" points="225.66,-669.2 225.66,-700 537.59,-700 537.59,-669.2 225.66,-669.2"/>
<text text-anchor="start" x="232.66" y="-681.4" font-family="Arial" font-size="14.00">created_at </text>
<text text-anchor="start" x="302.71" y="-681.4" font-family="Arial" font-size="14.00" fill="#666666">[timestamp without time zone]</text>
<polygon fill="none" stroke="black" points="225.66,-638.4 225.66,-669.2 537.59,-669.2 537.59,-638.4 225.66,-638.4"/>
<text text-anchor="start" x="232.66" y="-650.6" font-family="Arial" font-size="14.00">created_user_id </text>
<text text-anchor="start" x="336.95" y="-650.6" font-family="Arial" font-size="14.00" fill="#666666">[text]</text>
<polygon fill="none" stroke="black" points="225.66,-607.6 225.66,-638.4 537.59,-638.4 537.59,-607.6 225.66,-607.6"/>
<text text-anchor="start" x="232.66" y="-619.8" font-family="Arial" font-size="14.00">updated_at </text>
<text text-anchor="start" x="306.62" y="-619.8" font-family="Arial" font-size="14.00" fill="#666666">[timestamp without time zone]</text>
<polygon fill="none" stroke="black" points="225.66,-576.8 225.66,-607.6 537.59,-607.6 537.59,-576.8 225.66,-576.8"/>
<text text-anchor="start" x="232.66" y="-589" font-family="Arial" font-size="14.00">updated_user_id </text>
<text text-anchor="start" x="340.86" y="-589" font-family="Arial" font-size="14.00" fill="#666666">[text]</text>
</g>
<!-- public.apikey_operators&#45;&gt;public.operators -->
<g id="edge1" class="edge">
<title>public.apikey_operators:operator_id&#45;&gt;public.operators:operator_id</title>
<path fill="none" stroke="black" d="M548.97,-745.64C628.45,-736.48 571.87,-617.68 537.59,-533.6 514.8,-477.68 466.01,-491.86 443.06,-436 426.64,-396.04 398.85,-338.8 442.06,-338.8"/>
<polygon fill="black" stroke="black" points="548.91,-745.64 538.68,-741.69 543.59,-745.93 539.26,-746.16 539.26,-746.16 539.26,-746.16 543.59,-745.93 539.17,-750.68 548.91,-745.64"/>
<text text-anchor="start" x="7" y="-756.2" font-family="Arial" font-size="10.00">FOREIGN KEY (operator_id) REFERENCES operators(operator_id) ON UPDATE CASCADE ON DELETE CASCADE</text>
</g>
<!-- public.plants -->
<g id="node3" class="node">
<title>public.plants</title>
<polygon fill="#efefef" stroke="none" points="642.06,-854 642.06,-889.6 915.2,-889.6 915.2,-854 642.06,-854"/>
<polygon fill="none" stroke="black" points="642.06,-854 642.06,-889.6 915.2,-889.6 915.2,-854 642.06,-854"/>
<text text-anchor="start" x="670.14" y="-867.4" font-family="Arial Bold" font-size="18.00">public.plants</text>
<text text-anchor="start" x="762.63" y="-867.4" font-family="Arial" font-size="14.00">    </text>
<text text-anchor="start" x="793.74" y="-867.4" font-family="Arial" font-size="14.00" fill="#666666">[BASE TABLE]</text>
<polygon fill="none" stroke="black" points="642.06,-823.2 642.06,-854 915.2,-854 915.2,-823.2 642.06,-823.2"/>
<text text-anchor="start" x="649.06" y="-835.4" font-family="Arial" font-size="14.00">plant_id </text>
<text text-anchor="start" x="701.99" y="-835.4" font-family="Arial" font-size="14.00" fill="#666666">[varchar(256)]</text>
<polygon fill="none" stroke="black" points="642.06,-792.4 642.06,-823.2 915.2,-823.2 915.2,-792.4 642.06,-792.4"/>
<text text-anchor="start" x="649.06" y="-804.6" font-family="Arial" font-size="14.00">operator_id </text>
<text text-anchor="start" x="723.77" y="-804.6" font-family="Arial" font-size="14.00" fill="#666666">[varchar(256)]</text>
<polygon fill="none" stroke="black" points="642.06,-761.6 642.06,-792.4 915.2,-792.4 915.2,-761.6 642.06,-761.6"/>
<text text-anchor="start" x="649.06" y="-773.8" font-family="Arial" font-size="14.00">plant_name </text>
<text text-anchor="start" x="726.11" y="-773.8" font-family="Arial" font-size="14.00" fill="#666666">[varchar(256)]</text>
<polygon fill="none" stroke="black" points="642.06,-730.8 642.06,-761.6 915.2,-761.6 915.2,-730.8 642.06,-730.8"/>
<text text-anchor="start" x="649.06" y="-743" font-family="Arial" font-size="14.00">plant_address </text>
<text text-anchor="start" x="740.9" y="-743" font-family="Arial" font-size="14.00" fill="#666666">[varchar(256)]</text>
<polygon fill="none" stroke="black" points="642.06,-700 642.06,-730.8 915.2,-730.8 915.2,-700 642.06,-700"/>
<text text-anchor="start" x="649.06" y="-712.2" font-family="Arial" font-size="14.00">deleted_at </text>
<text text-anchor="start" x="718.34" y="-712.2" font-family="Arial" font-size="14.00" fill="#666666">[timestamp without time zone]</text>
<polygon fill="none" stroke="black" points="642.06,-669.2 642.06,-700 915.2,-700 915.2,-669.2 642.06,-669.2"/>
<text text-anchor="start" x="649.06" y="-681.4" font-family="Arial" font-size="14.00">created_at </text>
<text text-anchor="start" x="719.1" y="-681.4" font-family="Arial" font-size="14.00" fill="#666666">[timestamp without time zone]</text>
<polygon fill="none" stroke="black" points="642.06,-638.4 642.06,-669.2 915.2,-669.2 915.2,-638.4 642.06,-638.4"/>
<text text-anchor="start" x="649.06" y="-650.6" font-family="Arial" font-size="14.00">created_user_id </text>
<text text-anchor="start" x="753.35" y="-650.6" font-family="Arial" font-size="14.00" fill="#666666">[text]</text>
<polygon fill="none" stroke="black" points="642.06,-607.6 642.06,-638.4 915.2,-638.4 915.2,-607.6 642.06,-607.6"/>
<text text-anchor="start" x="649.06" y="-619.8" font-family="Arial" font-size="14.00">updated_at </text>
<text text-anchor="start" x="723.01" y="-619.8" font-family="Arial" font-size="14.00" fill="#666666">[timestamp without time zone]</text>
<polygon fill="none" stroke="black" points="642.06,-576.8 642.06,-607.6 915.2,-607.6 915.2,-576.8 642.06,-576.8"/>
<text text-anchor="start" x="649.06" y="-589" font-family="Arial" font-size="14.00">updated_user_id </text>
<text text-anchor="start" x="757.26" y="-589" font-family="Arial" font-size="14.00" fill="#666666">[text]</text>
<polygon fill="none" stroke="black" points="642.06,-546 642.06,-576.8 915.2,-576.8 915.2,-546 642.06,-546"/>
<text text-anchor="start" x="649.06" y="-558.2" font-family="Arial" font-size="14.00">open_plant_id </text>
<text text-anchor="start" x="740.92" y="-558.2" font-family="Arial" font-size="14.00" fill="#666666">[varchar(26)]</text>
<polygon fill="none" stroke="black" points="642.06,-515.2 642.06,-546 915.2,-546 915.2,-515.2 642.06,-515.2"/>
<text text-anchor="start" x="649.06" y="-527.4" font-family="Arial" font-size="14.00">global_plant_id </text>
<text text-anchor="start" x="747.14" y="-527.4" font-family="Arial" font-size="14.00" fill="#666666">[varchar(256)]</text>
</g>
<!-- public.plants&#45;&gt;public.operators -->
<g id="edge2" class="edge">
<title>public.plants:operator_id&#45;&gt;public.operators:operator_id</title>
<path fill="none" stroke="black" d="M630.9,-805.91C569.95,-781.68 604.3,-532.1 642.06,-472 661.54,-440.98 696.6,-466.95 716.2,-436 739.31,-399.5 760.4,-338.8 717.2,-338.8"/>
<polygon fill="black" stroke="black" points="630.9,-805.9 639.9,-812.16 636.14,-806.88 640.4,-807.68 640.4,-807.68 640.4,-807.68 636.14,-806.88 641.55,-803.31 630.9,-805.9"/>
<text text-anchor="start" x="648.06" y="-817.8" font-family="Arial" font-size="10.00">FOREIGN KEY (operator_id) REFERENCES operators(operator_id) ON UPDATE CASCADE ON DELETE CASCADE</text>
</g>
</g>
</svg>
