<?xml version="1.0" encoding="UTF-8" standalone="no"?>
<!DOCTYPE svg PUBLIC "-//W3C//DTD SVG 1.1//EN"
 "http://www.w3.org/Graphics/SVG/1.1/DTD/svg11.dtd">
<!-- Generated by graphviz version 12.1.2 (20240928.0832)
 -->
<!-- Title: public.apikey_operators Pages: 1 -->
<svg width="1364pt" height="818pt"
 viewBox="0.00 0.00 1364.10 817.60" xmlns="http://www.w3.org/2000/svg" xmlns:xlink="http://www.w3.org/1999/xlink">
<g id="graph0" class="graph" transform="scale(1 1) rotate(0) translate(4 813.6)">
<title>public.apikey_operators</title>
<polygon fill="white" stroke="none" points="-4,4 -4,-813.6 1360.1,-813.6 1360.1,4 -4,4"/>
<!-- public.apikey_operators -->
<g id="node1" class="node">
<title>public.apikey_operators</title>
<polygon fill="#efefef" stroke="none" points="504.57,-727.8 504.57,-763.4 816.5,-763.4 816.5,-727.8 504.57,-727.8"/>
<polygon fill="none" stroke="black" points="504.57,-727.8 504.57,-763.4 816.5,-763.4 816.5,-727.8 504.57,-727.8"/>
<text text-anchor="start" x="511.57" y="-741.2" font-family="Arial Bold" font-size="18.00">public.apikey_operators</text>
<text text-anchor="start" x="685.01" y="-741.2" font-family="Arial" font-size="14.00">    </text>
<text text-anchor="start" x="716.13" y="-741.2" font-family="Arial" font-size="14.00" fill="#666666">[BASE TABLE]</text>
<polygon fill="none" stroke="black" points="504.57,-697 504.57,-727.8 816.5,-727.8 816.5,-697 504.57,-697"/>
<text text-anchor="start" x="511.57" y="-709.2" font-family="Arial" font-size="14.00">api_key </text>
<text text-anchor="start" x="563.71" y="-709.2" font-family="Arial" font-size="14.00" fill="#666666">[varchar(256)]</text>
<polygon fill="none" stroke="black" points="504.57,-666.2 504.57,-697 816.5,-697 816.5,-666.2 504.57,-666.2"/>
<text text-anchor="start" x="511.57" y="-678.4" font-family="Arial" font-size="14.00">operator_id </text>
<text text-anchor="start" x="586.29" y="-678.4" font-family="Arial" font-size="14.00" fill="#666666">[varchar(256)]</text>
<polygon fill="none" stroke="black" points="504.57,-635.4 504.57,-666.2 816.5,-666.2 816.5,-635.4 504.57,-635.4"/>
<text text-anchor="start" x="511.57" y="-647.6" font-family="Arial" font-size="14.00">deleted_at </text>
<text text-anchor="start" x="580.85" y="-647.6" font-family="Arial" font-size="14.00" fill="#666666">[timestamp without time zone]</text>
<polygon fill="none" stroke="black" points="504.57,-604.6 504.57,-635.4 816.5,-635.4 816.5,-604.6 504.57,-604.6"/>
<text text-anchor="start" x="511.57" y="-616.8" font-family="Arial" font-size="14.00">created_at </text>
<text text-anchor="start" x="581.62" y="-616.8" font-family="Arial" font-size="14.00" fill="#666666">[timestamp without time zone]</text>
<polygon fill="none" stroke="black" points="504.57,-573.8 504.57,-604.6 816.5,-604.6 816.5,-573.8 504.57,-573.8"/>
<text text-anchor="start" x="511.57" y="-586" font-family="Arial" font-size="14.00">created_user_id </text>
<text text-anchor="start" x="615.86" y="-586" font-family="Arial" font-size="14.00" fill="#666666">[text]</text>
<polygon fill="none" stroke="black" points="504.57,-543 504.57,-573.8 816.5,-573.8 816.5,-543 504.57,-543"/>
<text text-anchor="start" x="511.57" y="-555.2" font-family="Arial" font-size="14.00">updated_at </text>
<text text-anchor="start" x="585.53" y="-555.2" font-family="Arial" font-size="14.00" fill="#666666">[timestamp without time zone]</text>
<polygon fill="none" stroke="black" points="504.57,-512.2 504.57,-543 816.5,-543 816.5,-512.2 504.57,-512.2"/>
<text text-anchor="start" x="511.57" y="-524.4" font-family="Arial" font-size="14.00">updated_user_id </text>
<text text-anchor="start" x="619.77" y="-524.4" font-family="Arial" font-size="14.00" fill="#666666">[text]</text>
<polygon fill="none" stroke="black" stroke-width="3" points="503.07,-510.7 503.07,-764.9 818,-764.9 818,-510.7 503.07,-510.7"/>
</g>
<!-- public.api_keys -->
<g id="node2" class="node">
<title>public.api_keys</title>
<polygon fill="#efefef" stroke="none" points="334.96,-335.8 334.96,-371.4 608.11,-371.4 608.11,-335.8 334.96,-335.8"/>
<polygon fill="none" stroke="black" points="334.96,-335.8 334.96,-371.4 608.11,-371.4 608.11,-335.8 334.96,-335.8"/>
<text text-anchor="start" x="352.55" y="-349.2" font-family="Arial Bold" font-size="18.00">public.api_keys</text>
<text text-anchor="start" x="466.03" y="-349.2" font-family="Arial" font-size="14.00">    </text>
<text text-anchor="start" x="497.15" y="-349.2" font-family="Arial" font-size="14.00" fill="#666666">[BASE TABLE]</text>
<polygon fill="none" stroke="black" points="334.96,-305 334.96,-335.8 608.11,-335.8 608.11,-305 334.96,-305"/>
<text text-anchor="start" x="341.96" y="-317.2" font-family="Arial" font-size="14.00">id </text>
<text text-anchor="start" x="356.75" y="-317.2" font-family="Arial" font-size="14.00" fill="#666666">[varchar(256)]</text>
<polygon fill="none" stroke="black" points="334.96,-274.2 334.96,-305 608.11,-305 608.11,-274.2 334.96,-274.2"/>
<text text-anchor="start" x="341.96" y="-286.4" font-family="Arial" font-size="14.00">api_key </text>
<text text-anchor="start" x="394.11" y="-286.4" font-family="Arial" font-size="14.00" fill="#666666">[varchar(256)]</text>
<polygon fill="none" stroke="black" points="334.96,-243.4 334.96,-274.2 608.11,-274.2 608.11,-243.4 334.96,-243.4"/>
<text text-anchor="start" x="341.96" y="-255.6" font-family="Arial" font-size="14.00">application_name </text>
<text text-anchor="start" x="455.6" y="-255.6" font-family="Arial" font-size="14.00" fill="#666666">[varchar(256)]</text>
<polygon fill="none" stroke="black" points="334.96,-212.6 334.96,-243.4 608.11,-243.4 608.11,-212.6 334.96,-212.6"/>
<text text-anchor="start" x="341.96" y="-224.8" font-family="Arial" font-size="14.00">application_attribute </text>
<text text-anchor="start" x="471.16" y="-224.8" font-family="Arial" font-size="14.00" fill="#666666">[varchar(256)]</text>
<polygon fill="none" stroke="black" points="334.96,-181.8 334.96,-212.6 608.11,-212.6 608.11,-181.8 334.96,-181.8"/>
<text text-anchor="start" x="341.96" y="-194" font-family="Arial" font-size="14.00">deleted_at </text>
<text text-anchor="start" x="411.25" y="-194" font-family="Arial" font-size="14.00" fill="#666666">[timestamp without time zone]</text>
<polygon fill="none" stroke="black" points="334.96,-151 334.96,-181.8 608.11,-181.8 608.11,-151 334.96,-151"/>
<text text-anchor="start" x="341.96" y="-163.2" font-family="Arial" font-size="14.00">created_at </text>
<text text-anchor="start" x="412.01" y="-163.2" font-family="Arial" font-size="14.00" fill="#666666">[timestamp without time zone]</text>
<polygon fill="none" stroke="black" points="334.96,-120.2 334.96,-151 608.11,-151 608.11,-120.2 334.96,-120.2"/>
<text text-anchor="start" x="341.96" y="-132.4" font-family="Arial" font-size="14.00">created_user_id </text>
<text text-anchor="start" x="446.25" y="-132.4" font-family="Arial" font-size="14.00" fill="#666666">[text]</text>
<polygon fill="none" stroke="black" points="334.96,-89.4 334.96,-120.2 608.11,-120.2 608.11,-89.4 334.96,-89.4"/>
<text text-anchor="start" x="341.96" y="-101.6" font-family="Arial" font-size="14.00">updated_at </text>
<text text-anchor="start" x="415.92" y="-101.6" font-family="Arial" font-size="14.00" fill="#666666">[timestamp without time zone]</text>
<polygon fill="none" stroke="black" points="334.96,-58.6 334.96,-89.4 608.11,-89.4 608.11,-58.6 334.96,-58.6"/>
<text text-anchor="start" x="341.96" y="-70.8" font-family="Arial" font-size="14.00">updated_user_id </text>
<text text-anchor="start" x="450.16" y="-70.8" font-family="Arial" font-size="14.00" fill="#666666">[text]</text>
</g>
<!-- public.apikey_operators&#45;&gt;public.api_keys -->
<g id="edge1" class="edge">
<title>public.apikey_operators:api_key&#45;&gt;public.api_keys:api_key</title>
<path fill="none" stroke="black" d="M493.19,-711.9C397.56,-702.28 448.6,-555.87 504.57,-466 531.73,-422.39 580.86,-458.16 608.11,-414.6 637.57,-367.5 664.67,-289.6 609.11,-289.6"/>
<polygon fill="black" stroke="black" points="493.25,-711.9 503.02,-716.88 498.58,-712.16 502.9,-712.37 502.9,-712.37 502.9,-712.37 498.58,-712.16 503.45,-707.89 493.25,-711.9"/>
<text text-anchor="start" x="7" y="-722.4" font-family="Arial" font-size="10.00">FOREIGN KEY (api_key) REFERENCES api_keys(api_key) ON UPDATE CASCADE ON DELETE CASCADE</text>
</g>
<!-- public.operators -->
<g id="node3" class="node">
<title>public.operators</title>
<polygon fill="#efefef" stroke="none" points="712.96,-351.2 712.96,-386.8 986.11,-386.8 986.11,-351.2 712.96,-351.2"/>
<polygon fill="none" stroke="black" points="712.96,-351.2 712.96,-386.8 986.11,-386.8 986.11,-351.2 712.96,-351.2"/>
<text text-anchor="start" x="729.06" y="-364.6" font-family="Arial Bold" font-size="18.00">public.operators</text>
<text text-anchor="start" x="845.52" y="-364.6" font-family="Arial" font-size="14.00">    </text>
<text text-anchor="start" x="876.64" y="-364.6" font-family="Arial" font-size="14.00" fill="#666666">[BASE TABLE]</text>
<polygon fill="none" stroke="black" points="712.96,-320.4 712.96,-351.2 986.11,-351.2 986.11,-320.4 712.96,-320.4"/>
<text text-anchor="start" x="719.96" y="-332.6" font-family="Arial" font-size="14.00">operator_id </text>
<text text-anchor="start" x="794.68" y="-332.6" font-family="Arial" font-size="14.00" fill="#666666">[varchar(256)]</text>
<polygon fill="none" stroke="black" points="712.96,-289.6 712.96,-320.4 986.11,-320.4 986.11,-289.6 712.96,-289.6"/>
<text text-anchor="start" x="719.96" y="-301.8" font-family="Arial" font-size="14.00">operator_name </text>
<text text-anchor="start" x="818.81" y="-301.8" font-family="Arial" font-size="14.00" fill="#666666">[varchar(256)]</text>
<polygon fill="none" stroke="black" points="712.96,-258.8 712.96,-289.6 986.11,-289.6 986.11,-258.8 712.96,-258.8"/>
<text text-anchor="start" x="719.96" y="-271" font-family="Arial" font-size="14.00">deleted_at </text>
<text text-anchor="start" x="789.25" y="-271" font-family="Arial" font-size="14.00" fill="#666666">[timestamp without time zone]</text>
<polygon fill="none" stroke="black" points="712.96,-228 712.96,-258.8 986.11,-258.8 986.11,-228 712.96,-228"/>
<text text-anchor="start" x="719.96" y="-240.2" font-family="Arial" font-size="14.00">created_at </text>
<text text-anchor="start" x="790.01" y="-240.2" font-family="Arial" font-size="14.00" fill="#666666">[timestamp without time zone]</text>
<polygon fill="none" stroke="black" points="712.96,-197.2 712.96,-228 986.11,-228 986.11,-197.2 712.96,-197.2"/>
<text text-anchor="start" x="719.96" y="-209.4" font-family="Arial" font-size="14.00">created_user_id </text>
<text text-anchor="start" x="824.25" y="-209.4" font-family="Arial" font-size="14.00" fill="#666666">[text]</text>
<polygon fill="none" stroke="black" points="712.96,-166.4 712.96,-197.2 986.11,-197.2 986.11,-166.4 712.96,-166.4"/>
<text text-anchor="start" x="719.96" y="-178.6" font-family="Arial" font-size="14.00">updated_at </text>
<text text-anchor="start" x="793.92" y="-178.6" font-family="Arial" font-size="14.00" fill="#666666">[timestamp without time zone]</text>
<polygon fill="none" stroke="black" points="712.96,-135.6 712.96,-166.4 986.11,-166.4 986.11,-135.6 712.96,-135.6"/>
<text text-anchor="start" x="719.96" y="-147.8" font-family="Arial" font-size="14.00">updated_user_id </text>
<text text-anchor="start" x="828.16" y="-147.8" font-family="Arial" font-size="14.00" fill="#666666">[text]</text>
<polygon fill="none" stroke="black" points="712.96,-104.8 712.96,-135.6 986.11,-135.6 986.11,-104.8 712.96,-104.8"/>
<text text-anchor="start" x="719.96" y="-117" font-family="Arial" font-size="14.00">operator_address </text>
<text text-anchor="start" x="833.59" y="-117" font-family="Arial" font-size="14.00" fill="#666666">[varchar(256)]</text>
<polygon fill="none" stroke="black" points="712.96,-74 712.96,-104.8 986.11,-104.8 986.11,-74 712.96,-74"/>
<text text-anchor="start" x="719.96" y="-86.2" font-family="Arial" font-size="14.00">open_operator_id </text>
<text text-anchor="start" x="833.61" y="-86.2" font-family="Arial" font-size="14.00" fill="#666666">[varchar(20)]</text>
<polygon fill="none" stroke="black" points="712.96,-43.2 712.96,-74 986.11,-74 986.11,-43.2 712.96,-43.2"/>
<text text-anchor="start" x="719.96" y="-55.4" font-family="Arial" font-size="14.00">global_operator_id </text>
<text text-anchor="start" x="839.83" y="-55.4" font-family="Arial" font-size="14.00" fill="#666666">[varchar(256)]</text>
</g>
<!-- public.apikey_operators&#45;&gt;public.operators -->
<g id="edge2" class="edge">
<title>public.apikey_operators:operator_id&#45;&gt;public.operators:operator_id</title>
<path fill="none" stroke="black" d="M827.86,-681.01C910.17,-671.2 870.09,-541 816.5,-466 788.18,-426.36 741.41,-469.56 712.96,-430 688.52,-396.01 670.1,-335.8 711.96,-335.8"/>
<polygon fill="black" stroke="black" points="827.82,-681.01 817.58,-677.09 822.49,-681.32 818.17,-681.56 818.17,-681.56 818.17,-681.56 822.49,-681.32 818.09,-686.07 827.82,-681.01"/>
<text text-anchor="start" x="824.5" y="-691.6" font-family="Arial" font-size="10.00">FOREIGN KEY (operator_id) REFERENCES operators(operator_id) ON UPDATE CASCADE ON DELETE CASCADE</text>
</g>
</g>
</svg>
