<?xml version="1.0" encoding="UTF-8" standalone="no"?>
<!DOCTYPE svg PUBLIC "-//W3C//DTD SVG 1.1//EN"
 "http://www.w3.org/Graphics/SVG/1.1/DTD/svg11.dtd">
<!-- Generated by graphviz version 12.1.2 (20240928.0832)
 -->
<!-- Title: dhlocal Pages: 1 -->
<svg width="1815pt" height="935pt"
 viewBox="0.00 0.00 1815.20 934.80" xmlns="http://www.w3.org/2000/svg" xmlns:xlink="http://www.w3.org/1999/xlink">
<g id="graph0" class="graph" transform="scale(1 1) rotate(0) translate(4 930.8)">
<title>dhlocal</title>
<polygon fill="white" stroke="none" points="-4,4 -4,-930.8 1811.2,-930.8 1811.2,4 -4,4"/>
<!-- public.schema_migrations -->
<g id="node1" class="node">
<title>public.schema_migrations</title>
<polygon fill="#efefef" stroke="none" points="43.2,-709.4 43.2,-745 371.15,-745 371.15,-709.4 43.2,-709.4"/>
<polygon fill="none" stroke="black" points="43.2,-709.4 43.2,-745 371.15,-745 371.15,-709.4 43.2,-709.4"/>
<text text-anchor="start" x="50.2" y="-722.8" font-family="Arial Bold" font-size="18.00">public.schema_migrations</text>
<text text-anchor="start" x="239.66" y="-722.8" font-family="Arial" font-size="14.00">    </text>
<text text-anchor="start" x="270.77" y="-722.8" font-family="Arial" font-size="14.00" fill="#666666">[BASE TABLE]</text>
<polygon fill="none" stroke="black" points="43.2,-678.6 43.2,-709.4 371.15,-709.4 371.15,-678.6 43.2,-678.6"/>
<text text-anchor="start" x="50.2" y="-690.8" font-family="Arial" font-size="14.00">version </text>
<text text-anchor="start" x="99.22" y="-690.8" font-family="Arial" font-size="14.00" fill="#666666">[bigint]</text>
<polygon fill="none" stroke="black" points="43.2,-647.8 43.2,-678.6 371.15,-678.6 371.15,-647.8 43.2,-647.8"/>
<text text-anchor="start" x="50.2" y="-660" font-family="Arial" font-size="14.00">dirty </text>
<text text-anchor="start" x="80.54" y="-660" font-family="Arial" font-size="14.00" fill="#666666">[boolean]</text>
</g>
<!-- public.api_keys -->
<g id="node2" class="node">
<title>public.api_keys</title>
<polygon fill="#efefef" stroke="none" points="678.6,-335.8 678.6,-371.4 951.74,-371.4 951.74,-335.8 678.6,-335.8"/>
<polygon fill="none" stroke="black" points="678.6,-335.8 678.6,-371.4 951.74,-371.4 951.74,-335.8 678.6,-335.8"/>
<text text-anchor="start" x="696.19" y="-349.2" font-family="Arial Bold" font-size="18.00">public.api_keys</text>
<text text-anchor="start" x="809.67" y="-349.2" font-family="Arial" font-size="14.00">    </text>
<text text-anchor="start" x="840.78" y="-349.2" font-family="Arial" font-size="14.00" fill="#666666">[BASE TABLE]</text>
<polygon fill="none" stroke="black" points="678.6,-305 678.6,-335.8 951.74,-335.8 951.74,-305 678.6,-305"/>
<text text-anchor="start" x="685.6" y="-317.2" font-family="Arial" font-size="14.00">id </text>
<text text-anchor="start" x="700.39" y="-317.2" font-family="Arial" font-size="14.00" fill="#666666">[varchar(256)]</text>
<polygon fill="none" stroke="black" points="678.6,-274.2 678.6,-305 951.74,-305 951.74,-274.2 678.6,-274.2"/>
<text text-anchor="start" x="685.6" y="-286.4" font-family="Arial" font-size="14.00">api_key </text>
<text text-anchor="start" x="737.75" y="-286.4" font-family="Arial" font-size="14.00" fill="#666666">[varchar(256)]</text>
<polygon fill="none" stroke="black" points="678.6,-243.4 678.6,-274.2 951.74,-274.2 951.74,-243.4 678.6,-243.4"/>
<text text-anchor="start" x="685.6" y="-255.6" font-family="Arial" font-size="14.00">application_name </text>
<text text-anchor="start" x="799.24" y="-255.6" font-family="Arial" font-size="14.00" fill="#666666">[varchar(256)]</text>
<polygon fill="none" stroke="black" points="678.6,-212.6 678.6,-243.4 951.74,-243.4 951.74,-212.6 678.6,-212.6"/>
<text text-anchor="start" x="685.6" y="-224.8" font-family="Arial" font-size="14.00">application_attribute </text>
<text text-anchor="start" x="814.8" y="-224.8" font-family="Arial" font-size="14.00" fill="#666666">[varchar(256)]</text>
<polygon fill="none" stroke="black" points="678.6,-181.8 678.6,-212.6 951.74,-212.6 951.74,-181.8 678.6,-181.8"/>
<text text-anchor="start" x="685.6" y="-194" font-family="Arial" font-size="14.00">deleted_at </text>
<text text-anchor="start" x="754.88" y="-194" font-family="Arial" font-size="14.00" fill="#666666">[timestamp without time zone]</text>
<polygon fill="none" stroke="black" points="678.6,-151 678.6,-181.8 951.74,-181.8 951.74,-151 678.6,-151"/>
<text text-anchor="start" x="685.6" y="-163.2" font-family="Arial" font-size="14.00">created_at </text>
<text text-anchor="start" x="755.65" y="-163.2" font-family="Arial" font-size="14.00" fill="#666666">[timestamp without time zone]</text>
<polygon fill="none" stroke="black" points="678.6,-120.2 678.6,-151 951.74,-151 951.74,-120.2 678.6,-120.2"/>
<text text-anchor="start" x="685.6" y="-132.4" font-family="Arial" font-size="14.00">created_user_id </text>
<text text-anchor="start" x="789.89" y="-132.4" font-family="Arial" font-size="14.00" fill="#666666">[text]</text>
<polygon fill="none" stroke="black" points="678.6,-89.4 678.6,-120.2 951.74,-120.2 951.74,-89.4 678.6,-89.4"/>
<text text-anchor="start" x="685.6" y="-101.6" font-family="Arial" font-size="14.00">updated_at </text>
<text text-anchor="start" x="759.56" y="-101.6" font-family="Arial" font-size="14.00" fill="#666666">[timestamp without time zone]</text>
<polygon fill="none" stroke="black" points="678.6,-58.6 678.6,-89.4 951.74,-89.4 951.74,-58.6 678.6,-58.6"/>
<text text-anchor="start" x="685.6" y="-70.8" font-family="Arial" font-size="14.00">updated_user_id </text>
<text text-anchor="start" x="793.8" y="-70.8" font-family="Arial" font-size="14.00" fill="#666666">[text]</text>
</g>
<!-- public.cidrs -->
<g id="node3" class="node">
<title>public.cidrs</title>
<polygon fill="#efefef" stroke="none" points="475.6,-786.4 475.6,-822 748.74,-822 748.74,-786.4 475.6,-786.4"/>
<polygon fill="none" stroke="black" points="475.6,-786.4 475.6,-822 748.74,-822 748.74,-786.4 475.6,-786.4"/>
<text text-anchor="start" x="507.69" y="-799.8" font-family="Arial Bold" font-size="18.00">public.cidrs</text>
<text text-anchor="start" x="592.17" y="-799.8" font-family="Arial" font-size="14.00">    </text>
<text text-anchor="start" x="623.29" y="-799.8" font-family="Arial" font-size="14.00" fill="#666666">[BASE TABLE]</text>
<polygon fill="none" stroke="black" points="475.6,-755.6 475.6,-786.4 748.74,-786.4 748.74,-755.6 475.6,-755.6"/>
<text text-anchor="start" x="482.6" y="-767.8" font-family="Arial" font-size="14.00">cidr </text>
<text text-anchor="start" x="509.05" y="-767.8" font-family="Arial" font-size="14.00" fill="#666666">[varchar(18)]</text>
<polygon fill="none" stroke="black" points="475.6,-724.8 475.6,-755.6 748.74,-755.6 748.74,-724.8 475.6,-724.8"/>
<text text-anchor="start" x="482.6" y="-737" font-family="Arial" font-size="14.00">api_key </text>
<text text-anchor="start" x="534.75" y="-737" font-family="Arial" font-size="14.00" fill="#666666">[varchar(256)]</text>
<polygon fill="none" stroke="black" points="475.6,-694 475.6,-724.8 748.74,-724.8 748.74,-694 475.6,-694"/>
<text text-anchor="start" x="482.6" y="-706.2" font-family="Arial" font-size="14.00">deleted_at </text>
<text text-anchor="start" x="551.88" y="-706.2" font-family="Arial" font-size="14.00" fill="#666666">[timestamp without time zone]</text>
<polygon fill="none" stroke="black" points="475.6,-663.2 475.6,-694 748.74,-694 748.74,-663.2 475.6,-663.2"/>
<text text-anchor="start" x="482.6" y="-675.4" font-family="Arial" font-size="14.00">created_at </text>
<text text-anchor="start" x="552.65" y="-675.4" font-family="Arial" font-size="14.00" fill="#666666">[timestamp without time zone]</text>
<polygon fill="none" stroke="black" points="475.6,-632.4 475.6,-663.2 748.74,-663.2 748.74,-632.4 475.6,-632.4"/>
<text text-anchor="start" x="482.6" y="-644.6" font-family="Arial" font-size="14.00">created_user_id </text>
<text text-anchor="start" x="586.89" y="-644.6" font-family="Arial" font-size="14.00" fill="#666666">[text]</text>
<polygon fill="none" stroke="black" points="475.6,-601.6 475.6,-632.4 748.74,-632.4 748.74,-601.6 475.6,-601.6"/>
<text text-anchor="start" x="482.6" y="-613.8" font-family="Arial" font-size="14.00">updated_at </text>
<text text-anchor="start" x="556.56" y="-613.8" font-family="Arial" font-size="14.00" fill="#666666">[timestamp without time zone]</text>
<polygon fill="none" stroke="black" points="475.6,-570.8 475.6,-601.6 748.74,-601.6 748.74,-570.8 475.6,-570.8"/>
<text text-anchor="start" x="482.6" y="-583" font-family="Arial" font-size="14.00">updated_user_id </text>
<text text-anchor="start" x="590.8" y="-583" font-family="Arial" font-size="14.00" fill="#666666">[text]</text>
</g>
<!-- public.cidrs&#45;&gt;public.api_keys -->
<g id="edge1" class="edge">
<title>public.cidrs:api_key&#45;&gt;public.api_keys:api_key</title>
<path fill="none" stroke="black" d="M760.08,-739.65C838.88,-730.73 773.85,-614.86 748.74,-527.6 732.4,-470.79 695.04,-471.38 678.6,-414.6 663.15,-361.23 622.04,-289.6 677.6,-289.6"/>
<polygon fill="black" stroke="black" points="760.06,-739.65 749.84,-735.69 754.74,-739.94 750.41,-740.16 750.41,-740.16 750.41,-740.16 754.74,-739.94 750.32,-744.68 760.06,-739.65"/>
<text text-anchor="start" x="756.74" y="-750.2" font-family="Arial" font-size="10.00">FOREIGN KEY (api_key) REFERENCES api_keys(api_key) ON UPDATE CASCADE ON DELETE CASCADE</text>
</g>
<!-- public.operators -->
<g id="node4" class="node">
<title>public.operators</title>
<polygon fill="#efefef" stroke="none" points="1065.6,-351.2 1065.6,-386.8 1338.74,-386.8 1338.74,-351.2 1065.6,-351.2"/>
<polygon fill="none" stroke="black" points="1065.6,-351.2 1065.6,-386.8 1338.74,-386.8 1338.74,-351.2 1065.6,-351.2"/>
<text text-anchor="start" x="1081.7" y="-364.6" font-family="Arial Bold" font-size="18.00">public.operators</text>
<text text-anchor="start" x="1198.16" y="-364.6" font-family="Arial" font-size="14.00">    </text>
<text text-anchor="start" x="1229.28" y="-364.6" font-family="Arial" font-size="14.00" fill="#666666">[BASE TABLE]</text>
<polygon fill="none" stroke="black" points="1065.6,-320.4 1065.6,-351.2 1338.74,-351.2 1338.74,-320.4 1065.6,-320.4"/>
<text text-anchor="start" x="1072.6" y="-332.6" font-family="Arial" font-size="14.00">operator_id </text>
<text text-anchor="start" x="1147.32" y="-332.6" font-family="Arial" font-size="14.00" fill="#666666">[varchar(256)]</text>
<polygon fill="none" stroke="black" points="1065.6,-289.6 1065.6,-320.4 1338.74,-320.4 1338.74,-289.6 1065.6,-289.6"/>
<text text-anchor="start" x="1072.6" y="-301.8" font-family="Arial" font-size="14.00">operator_name </text>
<text text-anchor="start" x="1171.44" y="-301.8" font-family="Arial" font-size="14.00" fill="#666666">[varchar(256)]</text>
<polygon fill="none" stroke="black" points="1065.6,-258.8 1065.6,-289.6 1338.74,-289.6 1338.74,-258.8 1065.6,-258.8"/>
<text text-anchor="start" x="1072.6" y="-271" font-family="Arial" font-size="14.00">deleted_at </text>
<text text-anchor="start" x="1141.88" y="-271" font-family="Arial" font-size="14.00" fill="#666666">[timestamp without time zone]</text>
<polygon fill="none" stroke="black" points="1065.6,-228 1065.6,-258.8 1338.74,-258.8 1338.74,-228 1065.6,-228"/>
<text text-anchor="start" x="1072.6" y="-240.2" font-family="Arial" font-size="14.00">created_at </text>
<text text-anchor="start" x="1142.65" y="-240.2" font-family="Arial" font-size="14.00" fill="#666666">[timestamp without time zone]</text>
<polygon fill="none" stroke="black" points="1065.6,-197.2 1065.6,-228 1338.74,-228 1338.74,-197.2 1065.6,-197.2"/>
<text text-anchor="start" x="1072.6" y="-209.4" font-family="Arial" font-size="14.00">created_user_id </text>
<text text-anchor="start" x="1176.89" y="-209.4" font-family="Arial" font-size="14.00" fill="#666666">[text]</text>
<polygon fill="none" stroke="black" points="1065.6,-166.4 1065.6,-197.2 1338.74,-197.2 1338.74,-166.4 1065.6,-166.4"/>
<text text-anchor="start" x="1072.6" y="-178.6" font-family="Arial" font-size="14.00">updated_at </text>
<text text-anchor="start" x="1146.56" y="-178.6" font-family="Arial" font-size="14.00" fill="#666666">[timestamp without time zone]</text>
<polygon fill="none" stroke="black" points="1065.6,-135.6 1065.6,-166.4 1338.74,-166.4 1338.74,-135.6 1065.6,-135.6"/>
<text text-anchor="start" x="1072.6" y="-147.8" font-family="Arial" font-size="14.00">updated_user_id </text>
<text text-anchor="start" x="1180.8" y="-147.8" font-family="Arial" font-size="14.00" fill="#666666">[text]</text>
<polygon fill="none" stroke="black" points="1065.6,-104.8 1065.6,-135.6 1338.74,-135.6 1338.74,-104.8 1065.6,-104.8"/>
<text text-anchor="start" x="1072.6" y="-117" font-family="Arial" font-size="14.00">operator_address </text>
<text text-anchor="start" x="1186.23" y="-117" font-family="Arial" font-size="14.00" fill="#666666">[varchar(256)]</text>
<polygon fill="none" stroke="black" points="1065.6,-74 1065.6,-104.8 1338.74,-104.8 1338.74,-74 1065.6,-74"/>
<text text-anchor="start" x="1072.6" y="-86.2" font-family="Arial" font-size="14.00">open_operator_id </text>
<text text-anchor="start" x="1186.25" y="-86.2" font-family="Arial" font-size="14.00" fill="#666666">[varchar(20)]</text>
<polygon fill="none" stroke="black" points="1065.6,-43.2 1065.6,-74 1338.74,-74 1338.74,-43.2 1065.6,-43.2"/>
<text text-anchor="start" x="1072.6" y="-55.4" font-family="Arial" font-size="14.00">global_operator_id </text>
<text text-anchor="start" x="1192.47" y="-55.4" font-family="Arial" font-size="14.00" fill="#666666">[varchar(256)]</text>
</g>
<!-- public.apikey_operators -->
<g id="node5" class="node">
<title>public.apikey_operators</title>
<polygon fill="#efefef" stroke="none" points="853.21,-786.4 853.21,-822 1165.14,-822 1165.14,-786.4 853.21,-786.4"/>
<polygon fill="none" stroke="black" points="853.21,-786.4 853.21,-822 1165.14,-822 1165.14,-786.4 853.21,-786.4"/>
<text text-anchor="start" x="860.21" y="-799.8" font-family="Arial Bold" font-size="18.00">public.apikey_operators</text>
<text text-anchor="start" x="1033.65" y="-799.8" font-family="Arial" font-size="14.00">    </text>
<text text-anchor="start" x="1064.77" y="-799.8" font-family="Arial" font-size="14.00" fill="#666666">[BASE TABLE]</text>
<polygon fill="none" stroke="black" points="853.21,-755.6 853.21,-786.4 1165.14,-786.4 1165.14,-755.6 853.21,-755.6"/>
<text text-anchor="start" x="860.21" y="-767.8" font-family="Arial" font-size="14.00">api_key </text>
<text text-anchor="start" x="912.35" y="-767.8" font-family="Arial" font-size="14.00" fill="#666666">[varchar(256)]</text>
<polygon fill="none" stroke="black" points="853.21,-724.8 853.21,-755.6 1165.14,-755.6 1165.14,-724.8 853.21,-724.8"/>
<text text-anchor="start" x="860.21" y="-737" font-family="Arial" font-size="14.00">operator_id </text>
<text text-anchor="start" x="934.92" y="-737" font-family="Arial" font-size="14.00" fill="#666666">[varchar(256)]</text>
<polygon fill="none" stroke="black" points="853.21,-694 853.21,-724.8 1165.14,-724.8 1165.14,-694 853.21,-694"/>
<text text-anchor="start" x="860.21" y="-706.2" font-family="Arial" font-size="14.00">deleted_at </text>
<text text-anchor="start" x="929.49" y="-706.2" font-family="Arial" font-size="14.00" fill="#666666">[timestamp without time zone]</text>
<polygon fill="none" stroke="black" points="853.21,-663.2 853.21,-694 1165.14,-694 1165.14,-663.2 853.21,-663.2"/>
<text text-anchor="start" x="860.21" y="-675.4" font-family="Arial" font-size="14.00">created_at </text>
<text text-anchor="start" x="930.25" y="-675.4" font-family="Arial" font-size="14.00" fill="#666666">[timestamp without time zone]</text>
<polygon fill="none" stroke="black" points="853.21,-632.4 853.21,-663.2 1165.14,-663.2 1165.14,-632.4 853.21,-632.4"/>
<text text-anchor="start" x="860.21" y="-644.6" font-family="Arial" font-size="14.00">created_user_id </text>
<text text-anchor="start" x="964.5" y="-644.6" font-family="Arial" font-size="14.00" fill="#666666">[text]</text>
<polygon fill="none" stroke="black" points="853.21,-601.6 853.21,-632.4 1165.14,-632.4 1165.14,-601.6 853.21,-601.6"/>
<text text-anchor="start" x="860.21" y="-613.8" font-family="Arial" font-size="14.00">updated_at </text>
<text text-anchor="start" x="934.16" y="-613.8" font-family="Arial" font-size="14.00" fill="#666666">[timestamp without time zone]</text>
<polygon fill="none" stroke="black" points="853.21,-570.8 853.21,-601.6 1165.14,-601.6 1165.14,-570.8 853.21,-570.8"/>
<text text-anchor="start" x="860.21" y="-583" font-family="Arial" font-size="14.00">updated_user_id </text>
<text text-anchor="start" x="968.41" y="-583" font-family="Arial" font-size="14.00" fill="#666666">[text]</text>
</g>
<!-- public.apikey_operators&#45;&gt;public.api_keys -->
<g id="edge2" class="edge">
<title>public.apikey_operators:api_key&#45;&gt;public.api_keys:api_key</title>
<path fill="none" stroke="black" d="M842.59,-768.55C802.82,-746.02 835.39,-574.85 853.21,-527.6 876.72,-465.25 928.11,-476.9 951.74,-414.6 971.45,-362.65 1008.3,-289.6 952.74,-289.6"/>
<polygon fill="black" stroke="black" points="842.19,-768.45 850.77,-775.28 847.36,-769.76 851.56,-770.83 851.56,-770.83 851.56,-770.83 847.36,-769.76 852.99,-766.56 842.19,-768.45"/>
<text text-anchor="start" x="859.21" y="-781" font-family="Arial" font-size="10.00">FOREIGN KEY (api_key) REFERENCES api_keys(api_key) ON UPDATE CASCADE ON DELETE CASCADE</text>
</g>
<!-- public.apikey_operators&#45;&gt;public.operators -->
<g id="edge3" class="edge">
<title>public.apikey_operators:operator_id&#45;&gt;public.operators:operator_id</title>
<path fill="none" stroke="black" d="M1175.84,-737.24C1208.79,-714.55 1182.1,-567.72 1165.14,-527.6 1141.01,-470.53 1089.9,-487 1065.6,-430 1049.18,-391.48 1022.73,-335.8 1064.6,-335.8"/>
<polygon fill="black" stroke="black" points="1176.03,-737.19 1165.15,-735.8 1170.92,-738.74 1166.78,-740.01 1166.78,-740.01 1166.78,-740.01 1170.92,-738.74 1167.77,-744.41 1176.03,-737.19"/>
<text text-anchor="start" x="634.54" y="-724.2" font-family="Arial" font-size="10.00">FOREIGN KEY (operator_id) REFERENCES operators(operator_id) ON UPDATE CASCADE ON DELETE CASCADE</text>
</g>
<!-- public.plants -->
<g id="node6" class="node">
<title>public.plants</title>
<polygon fill="#efefef" stroke="none" points="1269.6,-848 1269.6,-883.6 1542.74,-883.6 1542.74,-848 1269.6,-848"/>
<polygon fill="none" stroke="black" points="1269.6,-848 1269.6,-883.6 1542.74,-883.6 1542.74,-848 1269.6,-848"/>
<text text-anchor="start" x="1297.68" y="-861.4" font-family="Arial Bold" font-size="18.00">public.plants</text>
<text text-anchor="start" x="1390.17" y="-861.4" font-family="Arial" font-size="14.00">    </text>
<text text-anchor="start" x="1421.29" y="-861.4" font-family="Arial" font-size="14.00" fill="#666666">[BASE TABLE]</text>
<polygon fill="none" stroke="black" points="1269.6,-817.2 1269.6,-848 1542.74,-848 1542.74,-817.2 1269.6,-817.2"/>
<text text-anchor="start" x="1276.6" y="-829.4" font-family="Arial" font-size="14.00">plant_id </text>
<text text-anchor="start" x="1329.53" y="-829.4" font-family="Arial" font-size="14.00" fill="#666666">[varchar(256)]</text>
<polygon fill="none" stroke="black" points="1269.6,-786.4 1269.6,-817.2 1542.74,-817.2 1542.74,-786.4 1269.6,-786.4"/>
<text text-anchor="start" x="1276.6" y="-798.6" font-family="Arial" font-size="14.00">operator_id </text>
<text text-anchor="start" x="1351.32" y="-798.6" font-family="Arial" font-size="14.00" fill="#666666">[varchar(256)]</text>
<polygon fill="none" stroke="black" points="1269.6,-755.6 1269.6,-786.4 1542.74,-786.4 1542.74,-755.6 1269.6,-755.6"/>
<text text-anchor="start" x="1276.6" y="-767.8" font-family="Arial" font-size="14.00">plant_name </text>
<text text-anchor="start" x="1353.66" y="-767.8" font-family="Arial" font-size="14.00" fill="#666666">[varchar(256)]</text>
<polygon fill="none" stroke="black" points="1269.6,-724.8 1269.6,-755.6 1542.74,-755.6 1542.74,-724.8 1269.6,-724.8"/>
<text text-anchor="start" x="1276.6" y="-737" font-family="Arial" font-size="14.00">plant_address </text>
<text text-anchor="start" x="1368.44" y="-737" font-family="Arial" font-size="14.00" fill="#666666">[varchar(256)]</text>
<polygon fill="none" stroke="black" points="1269.6,-694 1269.6,-724.8 1542.74,-724.8 1542.74,-694 1269.6,-694"/>
<text text-anchor="start" x="1276.6" y="-706.2" font-family="Arial" font-size="14.00">deleted_at </text>
<text text-anchor="start" x="1345.88" y="-706.2" font-family="Arial" font-size="14.00" fill="#666666">[timestamp without time zone]</text>
<polygon fill="none" stroke="black" points="1269.6,-663.2 1269.6,-694 1542.74,-694 1542.74,-663.2 1269.6,-663.2"/>
<text text-anchor="start" x="1276.6" y="-675.4" font-family="Arial" font-size="14.00">created_at </text>
<text text-anchor="start" x="1346.65" y="-675.4" font-family="Arial" font-size="14.00" fill="#666666">[timestamp without time zone]</text>
<polygon fill="none" stroke="black" points="1269.6,-632.4 1269.6,-663.2 1542.74,-663.2 1542.74,-632.4 1269.6,-632.4"/>
<text text-anchor="start" x="1276.6" y="-644.6" font-family="Arial" font-size="14.00">created_user_id </text>
<text text-anchor="start" x="1380.89" y="-644.6" font-family="Arial" font-size="14.00" fill="#666666">[text]</text>
<polygon fill="none" stroke="black" points="1269.6,-601.6 1269.6,-632.4 1542.74,-632.4 1542.74,-601.6 1269.6,-601.6"/>
<text text-anchor="start" x="1276.6" y="-613.8" font-family="Arial" font-size="14.00">updated_at </text>
<text text-anchor="start" x="1350.56" y="-613.8" font-family="Arial" font-size="14.00" fill="#666666">[timestamp without time zone]</text>
<polygon fill="none" stroke="black" points="1269.6,-570.8 1269.6,-601.6 1542.74,-601.6 1542.74,-570.8 1269.6,-570.8"/>
<text text-anchor="start" x="1276.6" y="-583" font-family="Arial" font-size="14.00">updated_user_id </text>
<text text-anchor="start" x="1384.8" y="-583" font-family="Arial" font-size="14.00" fill="#666666">[text]</text>
<polygon fill="none" stroke="black" points="1269.6,-540 1269.6,-570.8 1542.74,-570.8 1542.74,-540 1269.6,-540"/>
<text text-anchor="start" x="1276.6" y="-552.2" font-family="Arial" font-size="14.00">open_plant_id </text>
<text text-anchor="start" x="1368.46" y="-552.2" font-family="Arial" font-size="14.00" fill="#666666">[varchar(26)]</text>
<polygon fill="none" stroke="black" points="1269.6,-509.2 1269.6,-540 1542.74,-540 1542.74,-509.2 1269.6,-509.2"/>
<text text-anchor="start" x="1276.6" y="-521.4" font-family="Arial" font-size="14.00">global_plant_id </text>
<text text-anchor="start" x="1374.68" y="-521.4" font-family="Arial" font-size="14.00" fill="#666666">[varchar(256)]</text>
</g>
<!-- public.plants&#45;&gt;public.operators -->
<g id="edge4" class="edge">
<title>public.plants:operator_id&#45;&gt;public.operators:operator_id</title>
<path fill="none" stroke="black" d="M1258.45,-799.91C1197.58,-775.73 1232.69,-526.63 1269.6,-466 1287.62,-436.41 1320.62,-459.52 1338.74,-430 1360.65,-394.32 1381.61,-335.8 1339.74,-335.8"/>
<polygon fill="black" stroke="black" points="1258.44,-799.91 1267.45,-806.16 1263.69,-800.88 1267.94,-801.68 1267.94,-801.68 1267.94,-801.68 1263.69,-800.88 1269.1,-797.31 1258.44,-799.91"/>
<text text-anchor="start" x="1275.6" y="-811.8" font-family="Arial" font-size="10.00">FOREIGN KEY (operator_id) REFERENCES operators(operator_id) ON UPDATE CASCADE ON DELETE CASCADE</text>
</g>
</g>
</svg>
